<?xml version="1.0" encoding="UTF-8" standalone="no"?>
<!-- Created with matplotlib (http://matplotlib.org/) -->

<svg
   xmlns:dc="http://purl.org/dc/elements/1.1/"
   xmlns:cc="http://creativecommons.org/ns#"
   xmlns:rdf="http://www.w3.org/1999/02/22-rdf-syntax-ns#"
   xmlns:svg="http://www.w3.org/2000/svg"
   xmlns="http://www.w3.org/2000/svg"
   xmlns:xlink="http://www.w3.org/1999/xlink"
   xmlns:sodipodi="http://sodipodi.sourceforge.net/DTD/sodipodi-0.dtd"
   xmlns:inkscape="http://www.inkscape.org/namespaces/inkscape"
   height="349.14731pt"
   version="1.1"
   viewBox="0 0 259.21744 349.14731"
   width="259.21744pt"
   id="svg2"
   inkscape:version="0.91 r13725"
   sodipodi:docname="hsv_space.svg">
  <metadata
     id="metadata122">
    <rdf:RDF>
      <cc:Work
         rdf:about="">
        <dc:format>image/svg+xml</dc:format>
        <dc:type
           rdf:resource="http://purl.org/dc/dcmitype/StillImage" />
        <dc:title></dc:title>
      </cc:Work>
    </rdf:RDF>
  </metadata>
  <sodipodi:namedview
     pagecolor="#ffffff"
     bordercolor="#666666"
     borderopacity="1"
     objecttolerance="10"
     gridtolerance="10"
     guidetolerance="10"
     inkscape:pageopacity="0"
     inkscape:pageshadow="2"
     inkscape:window-width="1118"
     inkscape:window-height="792"
     id="namedview120"
     showgrid="false"
     fit-margin-top="0"
     fit-margin-left="0"
     fit-margin-right="0"
     fit-margin-bottom="0"
     inkscape:zoom="0.74920635"
     inkscape:cx="272.13208"
     inkscape:cy="332.94709"
     inkscape:window-x="0"
     inkscape:window-y="38"
     inkscape:window-maximized="0"
     inkscape:current-layer="svg2" />
  <defs
     id="defs4"
     style="stroke-linecap:butt;stroke-linejoin:round;stroke-miterlimit:100000">
    <style
       type="text/css"
       id="style6">
*{stroke-linecap:butt;stroke-linejoin:round;stroke-miterlimit:100000;}
  </style>
  </defs>
  <g
     style="stroke-linecap:butt;stroke-linejoin:round;stroke-miterlimit:100000"
     id="axes_1"
     transform="translate(-129.44225,-36.84897)">
    <g
       style="stroke-linecap:butt;stroke-linejoin:round;stroke-miterlimit:100000"
       id="Path3DCollection_1">
      <defs
         id="defs17">
        <path
           style="stroke-linecap:butt;stroke-linejoin:round;stroke-miterlimit:100000"
           inkscape:connector-curvature="0"
           id="C0_0_cdfb80d887"
           d="M 0,5.656854 C 1.500215,5.656854 2.939188,5.060812 4,4 5.060812,2.939188 5.656854,1.500215 5.656854,0 5.656854,-1.500215 5.060812,-2.939188 4,-4 2.939188,-5.060812 1.500215,-5.656854 0,-5.656854 c -1.500215,0 -2.939188,0.596042 -4,1.656854 -1.060812,1.060812 -1.656854,2.499785 -1.656854,4 0,1.500215 0.596042,2.939188 1.656854,4 1.060812,1.060812 2.499785,1.656854 4,1.656854 z" />
      </defs>
      <g
         style="stroke-linecap:butt;stroke-linejoin:round;stroke-miterlimit:100000"
         id="g20"
         clip-path="url(#p1a630953d3)">
        <use
           height="100%"
           width="100%"
           id="use22"
           y="379.83942"
           xlink:href="#C0_0_cdfb80d887"
           x="258.81082"
           style="stroke:#000000;stroke-linecap:butt;stroke-linejoin:round;stroke-miterlimit:100000" />
      </g>
      <g
         style="stroke-linecap:butt;stroke-linejoin:round;stroke-miterlimit:100000"
         id="g24"
         clip-path="url(#p1a630953d3)">
        <use
           height="100%"
           width="100%"
           id="use26"
           y="100.52599"
           xlink:href="#C0_0_cdfb80d887"
           x="258.81082"
           style="fill:#ffffff;stroke:#000000;stroke-linecap:butt;stroke-linejoin:round;stroke-miterlimit:100000" />
      </g>
      <g
         style="stroke-linecap:butt;stroke-linejoin:round;stroke-miterlimit:100000"
         id="g28"
         clip-path="url(#p1a630953d3)">
        <use
           height="100%"
           width="100%"
           id="use30"
           y="103.96218"
           xlink:href="#C0_0_cdfb80d887"
           x="382.50284"
           style="fill:#ff0000;stroke:#000000;stroke-linecap:butt;stroke-linejoin:round;stroke-miterlimit:100000" />
      </g>
      <g
         style="stroke-linecap:butt;stroke-linejoin:round;stroke-miterlimit:100000"
         id="g32"
         clip-path="url(#p1a630953d3)">
        <use
           height="100%"
           width="100%"
           id="use34"
           y="47.230339"
           xlink:href="#C0_0_cdfb80d887"
           x="324.1041"
           style="fill:#ffff00;stroke:#000000;stroke-linecap:butt;stroke-linejoin:round;stroke-miterlimit:100000" />
      </g>
      <g
         style="stroke-linecap:butt;stroke-linejoin:round;stroke-miterlimit:100000"
         id="g36"
         clip-path="url(#p1a630953d3)">
        <use
           height="100%"
           width="100%"
           id="use38"
           y="44.011124"
           xlink:href="#C0_0_cdfb80d887"
           x="204.48727"
           style="fill:#00ff00;stroke:#000000;stroke-linecap:butt;stroke-linejoin:round;stroke-miterlimit:100000" />
      </g>
      <g
         style="stroke-linecap:butt;stroke-linejoin:round;stroke-miterlimit:100000"
         id="g40"
         clip-path="url(#p1a630953d3)">
        <use
           height="100%"
           width="100%"
           id="use42"
           y="97.103134"
           xlink:href="#C0_0_cdfb80d887"
           x="135.59911"
           style="fill:#00ffff;stroke:#000000;stroke-linecap:butt;stroke-linejoin:round;stroke-miterlimit:100000" />
      </g>
      <g
         style="stroke-linecap:butt;stroke-linejoin:round;stroke-miterlimit:100000"
         id="g44"
         clip-path="url(#p1a630953d3)">
        <use
           height="100%"
           width="100%"
           id="use46"
           y="157.2514"
           xlink:href="#C0_0_cdfb80d887"
           x="189.31567"
           style="fill:#0000ff;stroke:#000000;stroke-linecap:butt;stroke-linejoin:round;stroke-miterlimit:100000" />
      </g>
      <g
         style="stroke-linecap:butt;stroke-linejoin:round;stroke-miterlimit:100000"
         id="g48"
         clip-path="url(#p1a630953d3)">
        <use
           height="100%"
           width="100%"
           id="use50"
           y="160.91252"
           xlink:href="#C0_0_cdfb80d887"
           x="316.8559"
           style="fill:#ff00ff;stroke:#000000;stroke-linecap:butt;stroke-linejoin:round;stroke-miterlimit:100000" />
      </g>
    </g>
    <g
       style="stroke-linecap:butt;stroke-linejoin:round;stroke-miterlimit:100000"
       id="patch_3">
      <path
         inkscape:connector-curvature="0"
         id="path53"
         style="fill:none;stroke:#000000;stroke-linecap:round;stroke-linejoin:round;stroke-miterlimit:100000"
         d="m 258.81081,377.84055 q 0,-137.65654 0,-274.19504"
         clip-path="url(#p1a630953d3)" />
      <path
         inkscape:connector-curvature="0"
         id="path55"
         style="stroke:#000000;stroke-linecap:round;stroke-linejoin:round;stroke-miterlimit:100000"
         d="m 254.81081,111.64551 4,-8 4,8 -8,0 z"
         clip-path="url(#p1a630953d3)" />
    </g>
    <g
       style="stroke-linecap:butt;stroke-linejoin:round;stroke-miterlimit:100000"
       id="patch_4">
      <path
         inkscape:connector-curvature="0"
         id="path58"
         style="fill:none;stroke:#000000;stroke-linecap:round;stroke-linejoin:round;stroke-miterlimit:100000"
         d="m 260.80767,100.58146 q 59.8467,1.66256 118.5758,3.29407"
         clip-path="url(#p1a630953d3)" />
      <path
         inkscape:connector-curvature="0"
         id="path60"
         style="stroke:#000000;stroke-linecap:round;stroke-linejoin:round;stroke-miterlimit:100000"
         d="m 371.49763,99.654913 7.88584,4.220617 -8.108,3.7763 0.22216,-7.996917 z"
         clip-path="url(#p1a630953d3)" />
    </g>
    <g
       style="stroke-linecap:butt;stroke-linejoin:round;stroke-miterlimit:100000"
       id="patch_5">
      <path
         inkscape:connector-curvature="0"
         id="path63"
         style="fill:none;stroke:#000000;stroke-linecap:round;stroke-linejoin:round;stroke-miterlimit:100000"
         d="m 299.89523,99.672784 q -1.34385,-14.128256 -21.06342,-18.1861"
         clip-path="url(#p1a630953d3)" />
      <path
         inkscape:connector-curvature="0"
         id="path65"
         style="stroke:#000000;stroke-linecap:round;stroke-linejoin:round;stroke-miterlimit:100000"
         d="m 285.86141,87.017028 -7.0296,-5.530344 8.64203,-2.305475 -1.61243,7.835819 z"
         clip-path="url(#p1a630953d3)" />
    </g>
    <g
       style="stroke-linecap:butt;stroke-linejoin:round;stroke-miterlimit:100000"
       id="line2d_1">
      <path
         inkscape:connector-curvature="0"
         id="path68"
         style="fill:none;stroke:#808080;stroke-linecap:square;stroke-linejoin:round;stroke-miterlimit:100000"
         d="m 382.50283,103.96218 -0.73791,-8.222375 -2.65602,-8.0716 -4.50699,-7.798342 -6.26485,-7.41 -7.90635,-6.915238 -9.41108,-6.323715 -10.76135,-5.645853 -11.94218,-4.892624 -12.94113,-4.075385 -13.7482,-3.205744 -14.35561,-2.295466 -14.75768,-1.356407 -14.95081,-0.400461 -14.93323,0.560453 -14.70511,1.51441 -14.2685,2.449499 -13.62737,3.353825 -12.78773,4.215546 -11.75769,5.022918 -10.5477,5.764366 -9.17058,6.428587 -7.64175,7.004689 -5.97936,7.482362 -4.20429,7.852094 -2.34026,8.105414 -0.41366,8.235167 1.54654,8.2358 3.50919,8.10368 5.44134,7.83735 7.30891,7.43784 9.07727,6.90879 10.7123,6.25668 12.1811,5.49084 13.45315,4.62335 14.50123,3.66899 15.30235,2.6448 15.83861,1.56979 16.09788,0.46446 16.07424,-0.64989 15.76822,-1.75164 15.18681,-2.81955 14.34314,-3.83339 13.25601,-4.7744 11.94917,-5.62589 10.45047,-6.37355 8.79089,-7.00572 7.0036,-7.51355 5.12288,-7.89106 3.18329,-8.13501 1.2188,-8.24484"
         clip-path="url(#p1a630953d3)" />
    </g>
    <g
       style="stroke-linecap:butt;stroke-linejoin:round;stroke-miterlimit:100000"
       id="line2d_2">
      <path
         inkscape:connector-curvature="0"
         id="path71"
         style="fill:none;stroke:#808080;stroke-linecap:square;stroke-linejoin:round;stroke-miterlimit:100000"
         d="M 258.81081,379.83942 382.50283,103.96218"
         clip-path="url(#p1a630953d3)" />
    </g>
    <g
       style="stroke-linecap:butt;stroke-linejoin:round;stroke-miterlimit:100000"
       id="line2d_3">
      <path
         inkscape:connector-curvature="0"
         id="path74"
         style="fill:none;stroke:#808080;stroke-linecap:square;stroke-linejoin:round;stroke-miterlimit:100000"
         d="M 258.81081,379.83942 324.1041,47.230338"
         clip-path="url(#p1a630953d3)" />
    </g>
    <g
       style="stroke-linecap:butt;stroke-linejoin:round;stroke-miterlimit:100000"
       id="line2d_4">
      <path
         inkscape:connector-curvature="0"
         id="path77"
         style="fill:none;stroke:#808080;stroke-linecap:square;stroke-linejoin:round;stroke-miterlimit:100000"
         d="M 258.81081,379.83942 204.48728,44.011122"
         clip-path="url(#p1a630953d3)" />
    </g>
    <g
       style="stroke-linecap:butt;stroke-linejoin:round;stroke-miterlimit:100000"
       id="line2d_5">
      <path
         inkscape:connector-curvature="0"
         id="path80"
         style="fill:none;stroke:#808080;stroke-linecap:square;stroke-linejoin:round;stroke-miterlimit:100000"
         d="M 258.81081,379.83942 135.5991,97.103133"
         clip-path="url(#p1a630953d3)" />
    </g>
    <g
       style="stroke-linecap:butt;stroke-linejoin:round;stroke-miterlimit:100000"
       id="line2d_6">
      <path
         inkscape:connector-curvature="0"
         id="path83"
         style="fill:none;stroke:#808080;stroke-linecap:square;stroke-linejoin:round;stroke-miterlimit:100000"
         d="M 258.81081,379.83942 189.31567,157.2514"
         clip-path="url(#p1a630953d3)" />
    </g>
    <g
       style="stroke-linecap:butt;stroke-linejoin:round;stroke-miterlimit:100000"
       id="line2d_7">
      <path
         inkscape:connector-curvature="0"
         id="path86"
         style="fill:none;stroke:#808080;stroke-linecap:square;stroke-linejoin:round;stroke-miterlimit:100000"
         d="m 258.81081,379.83942 58.04507,-218.9269"
         clip-path="url(#p1a630953d3)" />
    </g>
    <g
       style="stroke-linecap:butt;stroke-linejoin:round;stroke-miterlimit:100000"
       id="line2d_8">
      <path
         inkscape:connector-curvature="0"
         id="path89"
         style="fill:none;stroke:#000000;stroke-linecap:butt;stroke-linejoin:round;stroke-miterlimit:100000;stroke-dasharray:6, 6;stroke-dashoffset:0"
         d="M 258.81081,100.52599 308.31027,46.715759"
         clip-path="url(#p1a630953d3)" />
    </g>
    <g
       style="stroke-linecap:butt;stroke-linejoin:round;stroke-miterlimit:100000"
       id="text_1">
      <!-- V -->
      <defs
         id="defs92">
        <path
           style="stroke-linecap:butt;stroke-linejoin:round;stroke-miterlimit:100000"
           inkscape:connector-curvature="0"
           id="BitstreamVeraSans-Roman-56"
           d="M 28.609375,0 0.78125,72.90625 l 10.296875,0 23.109375,-61.375 23.140625,61.375 10.25,0 L 39.796875,0 Z" />
      </defs>
      <g
         style="stroke-linecap:butt;stroke-linejoin:round;stroke-miterlimit:100000"
         id="g95"
         transform="matrix(0.12,0,0,-0.12,263.67687,159.80297)">
        <use
           height="100%"
           width="100%"
           y="0"
           x="0"
           style="stroke-linecap:butt;stroke-linejoin:round;stroke-miterlimit:100000"
           id="use97"
           xlink:href="#BitstreamVeraSans-Roman-56" />
      </g>
    </g>
    <g
       style="stroke-linecap:butt;stroke-linejoin:round;stroke-miterlimit:100000"
       id="text_2">
      <!-- S -->
      <defs
         id="defs100">
        <path
           style="stroke-linecap:butt;stroke-linejoin:round;stroke-miterlimit:100000"
           inkscape:connector-curvature="0"
           id="BitstreamVeraSans-Roman-53"
           d="m 53.515625,70.515625 0,-9.625 q -5.609375,2.6875 -10.59375,4 -4.984375,1.328125 -9.625,1.328125 -8.046875,0 -12.421875,-3.125 -4.375,-3.125 -4.375,-8.890625 0,-4.84375 2.90625,-7.3125 2.90625,-2.453125 11.015625,-3.96875 L 36.375,41.703125 Q 47.40625,39.59375 52.65625,34.296875 57.90625,29 57.90625,20.125 q 0,-10.609375 -7.109375,-16.078125 -7.09375,-5.46875 -20.8125,-5.46875 -5.171875,0 -11.015625,1.171875 -5.828125,1.171875 -12.078125,3.46875 l 0,10.15625 q 6,-3.359375 11.765625,-5.078125 5.765625,-1.703125 11.328125,-1.703125 8.4375,0 13.03125,3.3125 4.59375,3.328125 4.59375,9.484375 0,5.359375 -3.296875,8.390625 Q 41.015625,30.8125 33.5,32.328125 L 27.484375,33.5 q -11.03125,2.1875 -15.96875,6.875 -4.921875,4.6875 -4.921875,13.046875 0,9.671875 6.8125,15.234375 6.8125,5.5625 18.765625,5.5625 5.140625,0 10.453125,-0.9375 5.328125,-0.921875 10.890625,-2.765625" />
      </defs>
      <g
         style="stroke-linecap:butt;stroke-linejoin:round;stroke-miterlimit:100000"
         id="g103"
         transform="matrix(0.12,0,0,-0.12,357.91039,95.751189)">
        <use
           height="100%"
           width="100%"
           y="0"
           x="0"
           style="stroke-linecap:butt;stroke-linejoin:round;stroke-miterlimit:100000"
           id="use105"
           xlink:href="#BitstreamVeraSans-Roman-53" />
      </g>
    </g>
    <g
       style="stroke-linecap:butt;stroke-linejoin:round;stroke-miterlimit:100000"
       id="text_3">
      <!-- H -->
      <defs
         id="defs108">
        <path
           style="stroke-linecap:butt;stroke-linejoin:round;stroke-miterlimit:100000"
           inkscape:connector-curvature="0"
           id="BitstreamVeraSans-Roman-48"
           d="m 9.8125,72.90625 9.859375,0 0,-29.890625 35.84375,0 0,29.890625 9.859375,0 0,-72.90625 -9.859375,0 0,34.71875 -35.84375,0 L 19.671875,0 9.8125,0 Z" />
      </defs>
      <g
         style="stroke-linecap:butt;stroke-linejoin:round;stroke-miterlimit:100000"
         id="g111"
         transform="matrix(0.12,0,0,-0.12,300.69061,92.358743)">
        <use
           height="100%"
           width="100%"
           y="0"
           x="0"
           style="stroke-linecap:butt;stroke-linejoin:round;stroke-miterlimit:100000"
           id="use113"
           xlink:href="#BitstreamVeraSans-Roman-48" />
      </g>
    </g>
  </g>
  <defs
     id="defs115">
    <clipPath
       id="p1a630953d3"
       style="stroke-linecap:butt;stroke-linejoin:round;stroke-miterlimit:100000">
      <rect
         height="504"
         width="504"
         x="0"
         y="0"
         id="rect118"
         style="stroke-linecap:butt;stroke-linejoin:round;stroke-miterlimit:100000" />
    </clipPath>
  </defs>
</svg>
