<?xml version="1.0" standalone="no"?>
<!DOCTYPE svg PUBLIC "-//W3C//DTD SVG 20010904//EN"
 "http://www.w3.org/TR/2001/REC-SVG-20010904/DTD/svg10.dtd">
<svg version="1.0" xmlns="http://www.w3.org/2000/svg"
 width="700.000000pt" height="700.000000pt" viewBox="0 0 700.000000 700.000000"
 preserveAspectRatio="xMidYMid meet">
<metadata>
Created by potrace 1.11, written by Peter Selinger 2001-2013
</metadata>
<g transform="translate(0.000000,700.000000) scale(0.100000,-0.100000)"
fill="#000000" stroke="none">
<path d="M3457 6914 c-1 -1 -63 -4 -137 -8 -74 -3 -144 -7 -155 -10 -11 -2
-49 -7 -85 -11 -36 -4 -74 -9 -85 -11 -11 -2 -58 -11 -105 -19 -531 -95 -1064
-341 -1492 -687 -502 -406 -869 -921 -1078 -1513 -25 -71 -85 -265 -95 -305
-20 -85 -66 -328 -71 -374 -3 -33 -7 -68 -9 -78 -23 -119 -23 -587 0 -758 2
-14 6 -47 9 -75 17 -130 61 -345 96 -466 31 -109 100 -307 125 -364 13 -27 37
-82 54 -122 105 -242 305 -558 495 -782 138 -164 340 -358 510 -491 230 -180
531 -355 791 -460 11 -4 45 -18 75 -30 78 -32 335 -114 395 -126 11 -2 34 -7
50 -11 17 -4 32 -7 35 -8 50 -11 69 -15 90 -19 14 -2 52 -9 85 -15 180 -31
339 -44 555 -44 144 -1 340 8 387 17 11 3 44 7 74 11 270 33 596 121 859 232
423 179 788 428 1116 760 474 480 813 1143 919 1793 3 19 7 46 10 60 2 14 7
50 10 80 4 30 8 66 10 80 23 156 22 524 0 720 -14 114 -14 119 -49 320 -7 43
-56 231 -82 320 -104 343 -305 738 -527 1032 -47 62 -93 122 -104 133 -10 11
-43 50 -75 85 -286 329 -680 626 -1069 809 -159 74 -186 85 -304 129 -225 82
-507 151 -725 177 -30 4 -66 8 -80 10 -52 7 -417 24 -423 19z"/>
</g>
</svg>
